<svg xmlns="http://www.w3.org/2000/svg" width="100" height="32" fill="#ddd" viewBox="0 0 100 32"><path fill="#ddd" d="m1.41 0 14.7 8.21L30.808 0H1.41ZM15.215 32V9.995L0 1.505 15.215 32ZM17.003 32V9.995l15.215-8.49L17.003 32ZM38.007 9.308c-.491 0-.737.126-.737.38 0 .245.246.367.737.367h3.69c1.969 0 2.952.997 2.952 2.988 0 2.49-1.23 3.735-3.69 3.735h-6.642v-2.987h6.642c.492 0 .737-.114.737-.344 0-.268-.245-.403-.737-.403h-2.952c-2.46 0-3.69-.995-3.69-2.988 0-2.49 1.23-3.735 3.69-3.735h6.642V9.31h-6.642v-.001ZM45.388 6.32H55.72v2.987H45.388V6.32Zm0 3.735H55.72v2.987H45.388v-2.987Zm0 6.723V13.79H55.72v2.988H45.388ZM56.457 11.55c0-3.487 1.722-5.23 5.167-5.23 3.444 0 5.166 1.603 5.166 4.81H63.84c0-1.216-.738-1.823-2.214-1.823s-2.214.747-2.214 2.241c0 1.494.738 2.241 2.214 2.241s2.214-.617 2.214-1.853h2.951c0 3.228-1.722 4.84-5.166 4.84-3.445.002-5.167-1.742-5.167-5.227ZM71.956 13.042h-1.477v3.736h-2.951V6.32h6.641c2.46 0 3.69 1.245 3.69 3.735 0 1.374-.584 2.275-1.756 2.704l6.184 6.26H77.86l-5.904-5.977Zm-1.477-3.735v.747h3.69c.492 0 .738-.122.738-.367 0-.253-.246-.381-.737-.381h-3.69v.001Z"/><path fill="#ddd" d="M78.597 6.32H88.93v2.987H78.597V6.32Zm0 3.735H88.93v2.987H78.597v-2.987Zm0 6.723V13.79H88.93v2.988H78.597ZM89.668 6.32H100v2.987h-3.69v7.47h-2.952v-7.47h-3.69V6.32ZM67.528 19.91h2.951v7.471h7.38v2.988H67.529V19.91ZM78.597 30.369v-5.23c0-3.486 1.723-5.23 5.167-5.23s5.166 1.744 5.166 5.23v5.23H85.98v-2.241h-4.428v2.24h-2.954Zm7.38-5.23c0-1.494-.737-2.241-2.213-2.241s-2.214.747-2.214 2.24h4.428ZM89.668 30.369V19.91h6.642c2.46 0 3.69 1.246 3.69 3.736 0 .996-.492 1.494-1.476 1.494.983 0 1.476.498 1.476 1.494 0 2.49-1.23 3.736-3.69 3.736h-6.642v-.002Zm6.642-6.723c.491 0 .737-.125.737-.374 0-.248-.246-.373-.737-.373h-3.69v.747h3.69Zm0 3.734c.491 0 .737-.125.737-.373 0-.25-.246-.374-.737-.374h-3.69v.747h3.69Z"/></svg>