<svg xmlns="http://www.w3.org/2000/svg" fill="#ddd" enable-background="new 0 0 136.9 60.5" viewBox="0 0 136.9 60.5" class="logo svg replaced-svg"><path d="m44.7 20.3c4.1 3.4 20.8 20.2-21.7 38.9.8.2 1.7.4 2.6.5.2 0 .5.1.8.1h.3l.6.1h.2c.3 0 .5 0 .8.1h.7.2.9.3c8.1-5 34.7-23.4 14.3-39.7z"></path><path d="m53.6 48.7c.4-.5.8-1.1 1.2-1.7.1-.2.2-.3.3-.5 0-.1.1-.1.1-.2.1-.2.2-.4.4-.6.1-.2.3-.5.4-.7s.3-.4.4-.7c0 0 0-.1.1-.1.5-.9.9-1.7 1.3-2.6v-.1c.1-.1.1-.3.2-.4.1-.2.2-.4.2-.6.1-.2.2-.4.2-.7.1-.3.2-.5.3-.8.1-.3.2-.5.2-.8.1-.3.2-.5.2-.8.1-.3.1-.5.2-.8.1-.2.1-.5.2-.7 0-.1 0-.2.1-.3 0-.2.1-.4.1-.6s.1-.5.1-.7c0-.1 0-.2 0-.2 0-.2.1-.4.1-.5s0-.2 0-.2c0-.2.1-.5.1-.7 0-.2 0-.4 0-.6 0-.1 0-.3 0-.4 0-.2 0-.5 0-.7 0-.3 0-.6 0-.9 0-16.6-13.4-30-30-30-16.6-.1-30 13.4-30 29.9v1 .8.3.6.3c0 .2 0 .5.1.7 0 .4.1.8.2 1.2 0 .2.1.4.1.6v.2c0 .2.1.3.1.5 0 .1.1.3.1.4 0 .2.1.4.1.6.3.4.4.8.5 1.1s.2.6.3.8v.1c.1.2.1.4.2.7 0 .1.1.3.1.4s.1.2.1.3c.1.1.1.2.2.4s.2.5.3.7c.1.3.2.5.4.8s.3.5.4.8.3.5.4.8l.9 1.5c.2.2.3.5.5.7s.3.5.5.7c.1.2.3.4.4.6.5.7 1 1.3 1.6 2 .1.2.3.3.4.5.2.2.3.3.5.5s.3.3.5.5.3.3.5.5c.1.1.3.3.4.4.2.1.3.3.5.4l.4.4 1.5 1.2c.1.1.3.2.4.3s.2.2.3.2c9-2.4 57.4-17.5 23.3-39.5 0 0 33.5 11.1 13 38.1.5-.5 1.1-.9 1.6-1.4.1-.1.2-.2.4-.4.1 0 .1-.1.1-.1.1-.1.3-.3.4-.4 0 0 .1-.1.1-.1.1-.2.3-.3.4-.5.3-.4.6-.7.9-1.1.2-.1.3-.3.5-.4z"></path><path d="m79 51.1c-.5-.5-1.1-.9-1.8-1.2s-1.4-.4-2.2-.4c-1 0-1.9.2-2.7.7s-1.5 1.2-2 2-.7 1.8-.7 2.8c0 .7.1 1.4.4 2.1s.7 1.3 1.2 1.8 1.1.9 1.8 1.2c.7.3 1.4.4 2.1.4s1.4-.1 2.1-.4 1.3-.7 1.8-1.2.9-1.1 1.2-1.8.4-1.4.4-2.1-.1-1.4-.4-2.1-.7-1.3-1.2-1.8zm-.4 5.9c-.2.3-.4.6-.6.8s-.5.5-.8.6c-.6.4-1.3.5-2 .5-.5 0-1-.1-1.5-.3s-.9-.5-1.3-.9-.7-.8-.9-1.3-.3-1-.3-1.5c0-.4 0-.7.1-1.1.1-.3.2-.7.4-1s.4-.6.6-.8.5-.5.8-.6c.6-.4 1.3-.5 2-.5s1.4.2 2 .5 1.1.8 1.5 1.4.5 1.3.5 2c0 .9-.2 1.6-.5 2.2z"></path><path d="m46.2 49.9c0-.1-.1-.1-.2-.1h-.2c-.1 0-.2.1-.2.1l-4.7 10v.1.1c0 .1.1.1.2.1h1.1c.1 0 .2-.1.2-.1s1.4-2.9 1.5-3.1h4l1.5 3.1c0 .1.1.1.2.1h1.1c.1 0 .2 0 .2-.1v-.1-.1zm-1.6 5.6 1.3-2.8 1.3 2.8z"></path><path d="m67.8 49.8h-5.5c-.1 0-.2.1-.2.2v1c0 .1.1.2.2.2h2v8.8c0 .1.1.2.2.2h1c.1 0 .2-.1.2-.2v-8.8h2c.1 0 .2-.1.2-.2v-1c.2-.1.1-.2-.1-.2z"></path><path d="m59.9 49.8h-1c-.1 0-.2.1-.2.2v6c0 .5 0 1-.1 1.5-.1.3-.2.6-.4.8s-.4.4-.7.5c-.3.2-.6.2-.9.2-.4 0-.7-.1-1-.2s-.5-.3-.7-.6-.3-.6-.3-.9c0-.4 0-.9 0-1.3v-6c0-.1-.1-.2-.2-.2h-1c-.1 0-.2.1-.2.2v6c0 .7 0 1.5.2 2.2s.6 1.3 1.2 1.7c.7.4 1.4.6 2.2.6.7 0 1.5-.2 2-.7.5-.4.9-.9 1.1-1.5.2-.7.3-1.5.3-2.2v-6c-.1-.2-.2-.3-.3-.3z"></path><path d="m128.3 58.8h-3.6v-8.8c0-.1-.1-.2-.2-.2h-1c-.1 0-.2.1-.2.2v10c0 .1.1.2.2.2h4.8c.1 0 .2-.1.2-.2v-1c0-.1-.1-.2-.2-.2z"></path><path d="m136.6 51.2c.1 0 .2-.1.2-.2v-1c0-.1-.1-.2-.2-.2h-5.7c-.1 0-.2.1-.2.2v10c0 .1.1.2.2.2h5.7c.1 0 .2-.1.2-.2v-1c0-.1-.1-.2-.2-.2h-4.4v-3.4h4.4c.1 0 .2-.1.2-.2v-1c0-.1-.1-.2-.2-.2h-4.4v-2.6h4.4z"></path><path d="m120 49.8h-.6c-.2 0-.4.2-.4.4v9.6c0 .2.2.4.4.4h.6c.2 0 .4-.2.4-.4v-9.6c0-.2-.2-.4-.4-.4z"></path><path d="m92.8 49.8h-.2c-.1 0-.2.1-.2.1l-3.8 7.7-3.8-7.7c0-.1-.1-.1-.2-.1h-.2c-.1 0-.2.1-.2.2l-1.4 10c0 .1 0 .1.1.2 0 .1.1.1.2.1h1c.1 0 .2-.1.2-.2 0 0 .7-5.2.9-6.4.6 1.1 3.2 6.5 3.2 6.5 0 .1.1.1.2.1h.3c.1 0 .2-.1.2-.1l3.2-6.4.7 6.2c0 .1.1.2.2.2h1c.1 0 .1 0 .2-.1 0 0 .1-.1.1-.2l-1.5-9.9c0-.2-.1-.2-.2-.2z"></path><path d="m105.9 51.1c-.5-.5-1.1-.9-1.8-1.2s-1.4-.4-2.2-.4c-1 0-1.9.2-2.7.7s-1.5 1.2-2 2-.7 1.8-.7 2.8c0 .7.1 1.4.4 2.1s.7 1.3 1.2 1.8 1.1.9 1.8 1.2c.7.3 1.4.4 2.1.4s1.4-.1 2.1-.4 1.3-.7 1.8-1.2.9-1.1 1.2-1.8.4-1.4.4-2.1-.1-1.4-.4-2.1-.7-1.3-1.2-1.8zm-.4 5.9c-.2.3-.4.6-.6.8s-.5.5-.8.6c-.6.4-1.3.5-2 .5-.5 0-1-.1-1.5-.3s-.9-.5-1.3-.9-.7-.8-.9-1.3-.3-1-.3-1.5c0-.4 0-.7.1-1.1.1-.3.2-.7.4-1s.4-.6.6-.8.5-.5.8-.6c.3-.2.6-.3 1-.4.3-.1.7-.1 1-.1.7 0 1.4.2 2 .5.3.2.6.4.8.6s.5.5.6.8c.4.6.5 1.3.5 2 .1.9-.1 1.6-.4 2.2z"></path><path d="m115.6 55c-.3-.2-.5-.4-.8-.5.3-.2.5-.4.6-.7.2-.4.4-.9.4-1.3 0-.5-.1-1-.4-1.4s-.7-.8-1.1-1c-.6-.2-1.3-.3-1.9-.3h-2c-.1 0-.2.1-.2.2v10c0 .1.1.2.2.2h2.7c.9 0 1.8-.3 2.5-.9.6-.6 1-1.4 1-2.2 0-.4-.1-.8-.3-1.2s-.4-.7-.7-.9zm-4.1-3.8h.9c.5 0 1 .1 1.4.3.3.2.4.5.4.9 0 .3-.1.6-.2.8-.2.2-.4.4-.7.5-.5.1-1 .2-1.4.2h-.3v-2.7zm3.3 6.8c-.2.3-.4.5-.7.6-.5.2-1 .2-1.5.2h-1v-3.3h.3c.6 0 1.1 0 1.7.1.4.1.8.3 1.1.6.2.3.4.6.4 1-.1.2-.2.5-.3.8z"></path><path d="m94.7 15.6h-3.1c-.2 0-.4.1-.4.3 0 0-8.5 19.4-9.3 21.3-.8-1.8-9.1-21.3-9.1-21.3-.1-.2-.2-.3-.4-.3h-3.1c-.2 0-.3.1-.4.2s-.1.2-.1.3v.2l12.4 28.8c.1.2.2.3.4.3h.6c.2 0 .4-.1.4-.3l12.5-28.8c0-.1 0-.1 0-.2s0-.2-.1-.3c0-.2-.1-.2-.3-.2z"></path><path d="m102.7 45.4h2.7c.3 0 .5-.2.5-.5v-21.4c0-.3-.2-.5-.5-.5h-2.7c-.3 0-.5.2-.5.5v21.3c0 .3.2.6.5.6z"></path><path d="m133.2 42.4v2.4c0 .3.2.5.5.5h2.7c.3 0 .5-.2.5-.5v-21.3c0-.3-.2-.5-.5-.5h-2.7c-.3 0-.5.2-.5.5v2.6c-.3-.3-.6-.7-.9-1-.6-.6-1.3-1.1-2.1-1.5-.7-.4-1.5-.7-2.4-.9s-1.7-.3-2.6-.3c-.8 0-1.5.1-2.3.2-.7.1-1.4.4-2.1.6-.7.3-1.3.6-2 1.1-.6.4-1.2.9-1.8 1.5-.5.5-1 1.1-1.5 1.8-.4.6-.8 1.3-1.1 2s-.5 1.4-.6 2.1c-.1.8-.2 1.5-.2 2.3s.1 1.6.2 2.3.3 1.5.6 2.2.6 1.4 1 2 .9 1.2 1.5 1.8c.5.6 1.1 1.1 1.8 1.5.6.4 1.3.8 1.9 1.1.7.3 1.4.5 2.1.6s1.5.2 2.3.2c.9 0 1.7-.1 2.6-.3.8-.2 1.6-.5 2.4-.8.8-.4 1.5-.8 2.1-1.4.4-.1.8-.4 1.1-.8zm-3.8-1.1c-.6.4-1.3.6-2 .8s-1.4.3-2.1.3-1.4-.1-2-.3c-.7-.2-1.3-.5-1.9-.8-.6-.4-1.2-.8-1.7-1.3s-.9-1.1-1.3-1.7-.6-1.3-.8-2-.3-1.4-.3-2.1.1-1.4.3-2.1.5-1.4.8-2 .8-1.2 1.3-1.7 1-.9 1.6-1.3 1.2-.6 1.9-.8 1.4-.3 2.1-.3c.5 0 1.1 0 1.6.1s1 .2 1.5.4.9.4 1.3.7.8.6 1.2 1 .7.8 1 1.2.5.9.7 1.4c.4 1 .6 2.1.6 3.2 0 .7-.1 1.5-.3 2.2-.2.7-.4 1.3-.8 1.9-.3.6-.8 1.1-1.2 1.6-.3.9-.8 1.3-1.5 1.6z"></path><path d="m104.1 14.3c-.7 0-1.4.3-1.9.8s-.8 1.2-.8 1.9.3 1.4.8 1.9 1.2.8 1.9.8 1.4-.3 1.9-.8.8-1.2.8-1.9-.3-1.4-.8-1.9-1.2-.8-1.9-.8"></path></svg>